# xmcd CD database file
#
# Track frame offsets:
#	150
#	12013
#	12900
#	20263
#	27451
#	36951
#	43015
#
# Disc length: 1450 seconds
#
# Revision: 0
# Processed by: cddbd v1.5.1PL0 Copyright (c) Steve Scherf et al.
# Submitted via: CDex 1.51
#
DISCID=4905a807
DTITLE=UNDOWN - UNDOWN2.5 KJ伝説!!!
DYEAR=1900
DGENRE=Hardcore
TTITLE0=フォーエヴァー
TTITLE1=祈祷師KJ
TTITLE2=オスメス
TTITLE3=健ちゃん DO IT
TTITLE4=スーパー・マッシュ
TTITLE5=KJお経
TTITLE6=ラ・マンション・ダイアリー〜リサイタル・ショウ
EXTD=
EXTT0=
EXTT1=
EXTT2=
EXTT3=
EXTT4=
EXTT5=
EXTT6=
PLAYORDER=
